<svg width="73" height="70" viewBox="0 0 73 70" fill="none" xmlns="http://www.w3.org/2000/svg">
<g filter="url(#filter0_d_1559_1867)">
<path d="M52.9278 16.2377H61.395C64.0402 16.2377 67.1049 19.3102 67.2557 21.9554V57.4156C66.7008 60.5112 63.1565 61.7159 60.7511 59.7223L53.1154 51.2609L25.6603 51.2474C23.0229 51.0366 19.9272 48.0879 19.9272 45.4002V36.933C19.5907 36.9253 19.3413 37.2888 19.1286 37.5092C16.6981 40.0403 14.5131 42.8324 12.042 45.3306C9.92469 47.1578 6.67046 46.2877 5.7346 43.6696C5.41169 31.6852 5.69399 19.6293 5.59151 7.61778C5.96856 4.62265 8.31788 2.2772 11.3091 1.90015L47.2082 1.90595C49.8553 2.05677 52.9259 5.12151 52.9259 7.76667V16.2339L52.9278 16.2377ZM9.65206 41.7109C10.0465 41.4267 10.41 41.0554 10.7387 40.6996C12.8328 38.4431 14.867 35.8231 17.0287 33.6749C17.4367 33.2688 17.7229 32.9285 18.3262 32.8028L46.6301 32.739C47.9856 32.4896 48.6333 31.7084 48.7339 30.3568C49.2695 23.1677 48.3201 15.3193 48.7281 8.06058C48.5772 6.73026 47.4519 6.02644 46.2008 5.95683L12.0362 5.96069C11.0616 5.95683 9.64819 7.08411 9.64819 8.06058V41.7128L9.65206 41.7109ZM63.2049 56.1839V22.3885C63.2049 21.7891 62.0157 20.4336 61.395 20.4336H52.9278V31.0723C52.9278 33.9785 49.2985 36.9349 46.487 36.9349H24.125V45.4021C24.125 45.5182 24.6915 46.3979 24.8578 46.5507C25.3509 47.009 26.018 47.1134 26.6599 47.2081L54.6739 47.2719C55.2346 47.4053 55.9732 48.2851 56.4044 48.726C58.7479 51.1217 60.7879 53.85 63.2029 56.1839H63.2049Z" fill="#ED7F31"/>
</g>
<defs>
<filter id="filter0_d_1559_1867" x="0.574219" y="0.900146" width="71.6816" height="68.7981" filterUnits="userSpaceOnUse" color-interpolation-filters="sRGB">
<feFlood flood-opacity="0" result="BackgroundImageFix"/>
<feColorMatrix in="SourceAlpha" type="matrix" values="0 0 0 0 0 0 0 0 0 0 0 0 0 0 0 0 0 0 127 0" result="hardAlpha"/>
<feOffset dy="4"/>
<feGaussianBlur stdDeviation="2.5"/>
<feComposite in2="hardAlpha" operator="out"/>
<feColorMatrix type="matrix" values="0 0 0 0 0 0 0 0 0 0 0 0 0 0 0 0 0 0 0.05 0"/>
<feBlend mode="normal" in2="BackgroundImageFix" result="effect1_dropShadow_1559_1867"/>
<feBlend mode="normal" in="SourceGraphic" in2="effect1_dropShadow_1559_1867" result="shape"/>
</filter>
</defs>
</svg>
