<svg width="28" height="28" viewBox="0 0 28 28" fill="none" xmlns="http://www.w3.org/2000/svg">
<g clip-path="url(#clip0_435_1015)">
<path d="M16.2208 4.16547C17.0635 4.05172 17.8215 4.63851 17.9106 5.48398L17.909 22.5552C17.7788 23.6009 16.632 24.1833 15.7122 23.6473L8.61869 19.2789C6.93103 19.2352 4.33283 19.6683 4.15345 17.2762C3.99431 15.1516 4.2754 12.8296 4.15564 10.6848C4.47994 8.29601 6.8479 8.78711 8.61869 8.72093L15.6865 4.36781C15.8456 4.27867 16.0387 4.19008 16.2208 4.16547ZM9.40345 18.2284C11.7654 19.6442 14.0842 21.1416 16.457 22.5339L16.5785 22.453L16.5905 5.57586C16.5571 5.49054 16.4838 5.44133 16.3942 5.48179L9.4029 9.77148V18.2284H9.40345ZM8.08494 10.0498H6.22228C5.89798 10.0498 5.5015 10.396 5.46869 10.7291L5.46322 17.1948C5.4829 17.5103 5.69454 17.7936 5.99642 17.8898C6.02814 17.9002 6.24962 17.9505 6.26329 17.9505H8.08494V10.0498Z" fill="#156EFB"/>
<path d="M21.7898 9.64907C22.2639 9.61188 22.6194 10.2288 22.8392 10.5853C24.1255 12.6744 24.1293 15.3338 22.8551 17.4311C22.7058 17.6766 22.3629 18.2175 22.113 18.3269C21.5858 18.5571 21.1089 18.1612 21.1882 17.6061C21.2199 17.3835 21.7006 16.8115 21.8466 16.5452C22.7069 14.9707 22.7063 13.0698 21.8466 11.4959C21.7039 11.2345 21.2216 10.6531 21.1871 10.436C21.1275 10.0587 21.4015 9.67915 21.7898 9.64852V9.64907Z" fill="#156EFB"/>
<path d="M19.7406 11.4104C20.2256 11.3317 20.4559 11.6882 20.6692 12.0585C21.3063 13.1637 21.3517 14.5276 20.8228 15.6854C20.5915 16.1912 20.1075 17.0006 19.4638 16.498C18.8639 16.0293 19.4846 15.4901 19.6706 15.0242C19.973 14.2651 19.9341 13.4869 19.5535 12.765C19.4102 12.4927 19.192 12.3527 19.2183 11.995C19.238 11.7205 19.4709 11.4542 19.7411 11.4104H19.7406Z" fill="#156EFB"/>
</g>
<defs>
<clipPath id="clip0_435_1015">
<rect width="28" height="28" fill="white"/>
</clipPath>
</defs>
</svg>
