<svg width="27" height="26" viewBox="0 0 27 26" fill="none" xmlns="http://www.w3.org/2000/svg">
<path d="M12.4178 10.8333H14.5844V16.25H12.4178V10.8333ZM12.4167 17.3333H14.5833V19.5H12.4167V17.3333Z" fill="#FF3363"/>
<path d="M15.4154 4.54991C15.0384 3.84033 14.3039 3.39941 13.5 3.39941C12.6962 3.39941 11.9617 3.84033 11.5847 4.551L3.63519 19.5692C3.45879 19.899 3.37141 20.2691 3.38167 20.643C3.39193 21.0169 3.49947 21.3816 3.69369 21.7012C3.88512 22.0223 4.15697 22.2879 4.48241 22.4718C4.80786 22.6557 5.17564 22.7516 5.54944 22.7499H21.4506C22.2176 22.7499 22.912 22.3577 23.3074 21.7012C23.5014 21.3815 23.6087 21.0168 23.619 20.643C23.6292 20.2692 23.542 19.8991 23.3659 19.5692L15.4154 4.54991ZM5.54944 20.5832L13.5 5.565L21.456 20.5832H5.54944Z" fill="#FF3363"/>
</svg>
