<svg width="50" height="50" viewBox="0 0 50 50" fill="none" xmlns="http://www.w3.org/2000/svg">
<path d="M10.1563 39.5918L10.1201 12.0459L12.6953 11.5645V40.2754L10.1563 39.5918Z" fill="#C2F2FF"/>
<path d="M26.5107 41.5205H12.248C10.4248 41.5205 8.94238 40.0371 8.94238 38.2148V13.2822C8.94238 11.459 10.4258 9.97656 12.248 9.97656H31.2842C33.1074 9.97656 34.5898 11.46 34.5898 13.2822V25.002C34.5898 25.541 34.1523 25.9785 33.6133 25.9785C33.0742 25.9785 32.6367 25.541 32.6367 25.002V13.2822C32.6367 12.5361 32.0303 11.9297 31.2842 11.9297H12.248C11.502 11.9297 10.8955 12.5361 10.8955 13.2822V38.2148C10.8955 38.9609 11.502 39.5674 12.248 39.5674H26.5107C27.0498 39.5674 27.4873 40.0049 27.4873 40.5439C27.4873 41.083 27.0498 41.5205 26.5107 41.5205Z" fill="#156EFB"/>
<path d="M40.4941 34.7148C40.1133 34.7148 39.751 34.4902 39.5937 34.1172C39.5303 33.9697 37.9512 30.418 33.9082 30.418C29.8652 30.418 27.6719 34.0625 27.584 34.2178C27.3184 34.6855 26.7236 34.8525 26.2549 34.5879C25.7861 34.3242 25.6182 33.7314 25.8809 33.2617C25.9902 33.0654 28.623 28.4648 33.9082 28.4648C39.1934 28.4648 41.3086 33.1592 41.3936 33.3594C41.6035 33.8564 41.3701 34.4287 40.873 34.6387C40.749 34.6904 40.6211 34.7158 40.4941 34.7158V34.7148Z" fill="#156EFB"/>
<path d="M33.9082 39.016C28.623 39.016 25.9902 34.4144 25.8809 34.2191C25.6172 33.7484 25.7861 33.1537 26.2568 32.89C26.7266 32.6273 27.3203 32.7943 27.584 33.2631C27.6729 33.4193 29.7871 37.0619 33.9082 37.0619C38.0293 37.0619 39.5303 33.5101 39.5947 33.3588C39.8076 32.8646 40.3809 32.6351 40.875 32.8451C41.3701 33.056 41.6016 33.6254 41.3926 34.1205C41.3086 34.3207 39.2676 39.015 33.9072 39.015L33.9082 39.016Z" fill="#156EFB"/>
<path d="M33.7217 35.1211C32.8857 35.1211 32.2061 34.4414 32.2061 33.6055C32.2061 32.7695 32.8857 32.0898 33.7217 32.0898C34.5576 32.0898 35.2373 32.7695 35.2373 33.6055C35.2373 34.4414 34.5576 35.1211 33.7217 35.1211ZM33.7217 33.168C33.4805 33.168 33.2842 33.3643 33.2842 33.6055C33.2842 33.8467 33.4805 34.043 33.7217 34.043C33.9629 34.043 34.1592 33.8467 34.1592 33.6055C34.1592 33.3643 33.9629 33.168 33.7217 33.168Z" fill="#156EFB"/>
<path d="M27.5957 18.7637H15.1074C14.5684 18.7637 14.1309 18.3262 14.1309 17.7871C14.1309 17.248 14.5684 16.8105 15.1074 16.8105H27.5957C28.1348 16.8105 28.5723 17.248 28.5723 17.7871C28.5723 18.3262 28.1348 18.7637 27.5957 18.7637Z" fill="#156EFB"/>
<path d="M21.7666 25.9766H15.1084C14.5693 25.9766 14.1318 25.5391 14.1318 25C14.1318 24.4609 14.5693 24.0234 15.1084 24.0234H21.7666C22.3057 24.0234 22.7432 24.4609 22.7432 25C22.7432 25.5391 22.3057 25.9766 21.7666 25.9766Z" fill="#156EFB"/>
</svg>
