<svg width="45" height="64" viewBox="0 0 45 64" fill="none" xmlns="http://www.w3.org/2000/svg">
<path d="M39.1385 0.389067C41.8473 0.0234416 44.2836 1.90957 44.5702 4.62715L44.5649 59.499C44.1465 62.86 40.4604 64.732 37.5037 63.0094L14.7032 48.968C9.27855 48.8274 0.927184 50.2195 0.350622 42.5309C-0.160902 35.7018 0.742614 28.2381 0.357653 21.344C1.40004 13.6658 9.01136 15.2443 14.7032 15.0316L37.4211 1.03946C37.9327 0.752935 38.5532 0.468168 39.1385 0.389067ZM17.2256 45.5912C24.8176 50.1422 32.2707 54.9551 39.8979 59.4305L40.2881 59.1703L40.3268 4.92247C40.2196 4.64825 39.984 4.49004 39.6957 4.62012L17.2239 18.4084V45.5912H17.2256ZM12.9875 19.3031H7.00043C5.95804 19.3031 4.68363 20.4158 4.57816 21.4863L4.56058 42.269C4.62386 43.2832 5.30414 44.1938 6.27445 44.5031C6.3764 44.5365 7.08832 44.6982 7.13226 44.6982H12.9875V19.3031Z" fill="#156EFB"/>
</svg>
