<svg width="38" height="39" viewBox="0 0 38 39" fill="none" xmlns="http://www.w3.org/2000/svg">
<path d="M10.3112 30.503C8.11956 30.2938 6.11343 29.0291 4.97937 27.1543C2.28448 22.6997 5.20276 17.0546 10.306 16.5314L10.312 8.4534C10.4315 7.32602 11.3696 6.44207 12.4925 6.33891L24.9034 6.33594L25.2841 6.43242L30.4512 11.5869L30.6546 11.9803L30.6605 30.8311C30.5403 32.0431 29.6408 32.9634 28.4199 33.0651H12.5519C11.2219 32.9538 10.1999 31.8635 10.3105 30.5038L10.3112 30.503ZM24.2748 7.59098H12.5519C12.137 7.59098 11.6012 8.16098 11.573 8.58031L11.5655 16.5002C12.0123 16.6457 12.5044 16.6976 12.9712 16.8371C19.5136 18.7936 19.4713 28.2661 12.9868 30.2188C12.7456 30.2915 11.6145 30.4474 11.5767 30.5082C11.475 30.6715 11.6702 31.171 11.7808 31.3313C12.0175 31.6742 12.3923 31.77 12.7887 31.8145H28.1252C28.6485 31.7729 29.0641 31.6327 29.2808 31.1206C29.3083 31.0567 29.4055 30.748 29.4055 30.7086V12.721H24.8418C24.6488 12.721 24.2748 12.3536 24.2748 12.1539V7.59023V7.59098ZM28.451 11.4088L25.5877 8.54543V11.4088H28.451ZM16.654 23.5198C16.654 20.3588 14.0919 17.7968 10.931 17.7968C7.76999 17.7968 5.20796 20.3588 5.20796 23.5198C5.20796 26.6808 7.76999 29.2428 10.931 29.2428C14.0919 29.2428 16.654 26.6808 16.654 23.5198Z" fill="#156EFB"/>
<path d="M18.0908 16.3404C17.7182 15.9433 17.9758 15.2798 18.5161 15.2256H24.962C25.7888 15.325 25.7888 16.4413 24.962 16.5415H18.5161C18.3847 16.5326 18.1754 16.4309 18.0908 16.3411V16.3404Z" fill="#156EFB"/>
<path d="M20.9771 19.059L25.0169 19.0493C25.7761 19.2267 25.7717 20.1797 25.0169 20.3541C23.8004 20.2301 22.1973 20.5344 21.0276 20.3541C20.3047 20.2428 20.2661 19.2393 20.9779 19.059H20.9771Z" fill="#156EFB"/>
<path d="M13.3423 21.206C13.9197 21.111 14.2923 21.6684 14.005 22.1693L10.3587 25.8009C10.0826 25.9144 9.85399 25.8328 9.62837 25.6673C9.31145 25.4342 8.20188 24.318 7.95622 23.9988C7.41516 23.2952 8.11802 22.5664 8.79341 23.0422C9.01013 23.195 9.96829 24.3143 10.0974 24.2913L13.0565 21.3403C13.1345 21.2705 13.2399 21.2238 13.3423 21.2067V21.206Z" fill="#156EFB"/>
</svg>
