<svg width="50" height="51" viewBox="0 0 50 51" fill="none" xmlns="http://www.w3.org/2000/svg">
<path d="M10.4893 23.8555C10.794 24.668 11.5508 25.1924 12.418 25.1924H12.5743C12.7071 25.1924 12.8145 25.2998 12.8145 25.4326V38.457C12.8145 39.5078 13.67 40.3633 14.7208 40.3633H19.9454C20.9961 40.3633 21.8516 39.5078 21.8516 38.457V29.3066C21.8516 29.1738 21.959 29.0664 22.0918 29.0664H27.9073C28.0401 29.0664 28.1475 29.1738 28.1475 29.3066V38.457C28.1475 39.5078 29.003 40.3633 30.0538 40.3633H35.2803C36.3311 40.3633 37.1866 39.5078 37.1866 38.457V25.4228C37.1866 25.2051 37.3936 25.1885 37.4561 25.1885C37.4629 25.1885 37.4698 25.1885 37.4766 25.1885C37.5118 25.1904 37.5459 25.1904 37.5801 25.1904C38.4473 25.1904 39.2051 24.666 39.5098 23.8535C39.8145 23.041 39.5879 22.1475 38.9346 21.5781L26.3487 10.6055C25.9737 10.2783 25.4932 10.0986 24.9952 10.0986C24.4971 10.0986 24.0157 10.2793 23.6407 10.6064L11.0635 21.5781C10.4102 22.1484 10.1846 23.042 10.4893 23.8535V23.8555Z" fill="#11357C"/>
</svg>
