<svg width="38" height="39" viewBox="0 0 38 39" fill="none" xmlns="http://www.w3.org/2000/svg">
<path d="M14.918 28.3334L14.9106 30.4301C15.8264 30.5421 17.1624 30.6898 17.9736 31.1388C18.7848 31.5879 18.3336 32.5579 17.509 32.48C17.2915 32.4592 16.8158 32.2217 16.553 32.149C14.9017 31.691 13.3713 31.7497 11.7296 32.2002C11.2486 32.3323 10.3305 32.8474 10.1116 32.0221C9.87039 31.1136 11.2805 30.8628 11.9344 30.7113C12.448 30.5919 13.0009 30.4991 13.5264 30.4813L13.5279 28.3601C13.0536 28.2235 12.5371 28.1753 12.0494 28.0313C8.93597 27.1132 6.59585 24.0881 6.59363 20.8076C6.59363 20.2161 7.15398 19.7901 7.69207 20.1233C8.1448 20.4038 7.97929 20.9404 8.03496 21.3709C8.99164 28.7356 19.4134 28.6392 20.3961 21.5713C20.4711 21.0347 20.2974 20.1003 21.0492 20.0149C22.017 19.9051 21.8582 21.1126 21.7818 21.7249C21.3402 25.2444 18.4226 27.9771 14.9187 28.3334H14.918Z" fill="#156EFB"/>
<path d="M14.0793 7.55746C16.6718 7.4877 18.8434 9.45524 19.0698 12.0306C18.9132 14.983 19.2709 18.1381 19.0698 21.0668C18.6661 26.9508 9.73754 27.0822 9.36644 20.8612C9.19871 18.0461 9.49855 15.0677 9.36644 12.2355C9.47777 9.72168 11.55 7.62574 14.0793 7.55746ZM17.6827 13.803V12.0321C17.6827 11.0213 16.6896 9.77735 15.819 9.32832C13.6689 8.21949 10.7543 9.78699 10.7543 12.2377V13.7258C10.7543 13.731 10.8256 13.803 10.8315 13.803H12.3708C12.5475 13.803 12.8035 14.1889 12.8369 14.3655C12.8993 14.6936 12.6039 15.1886 12.2684 15.1886H10.7543V17.8828C10.7543 17.888 10.8256 17.96 10.8315 17.96H12.3708C12.4317 17.96 12.6432 18.1307 12.6966 18.1982C12.9156 18.4736 12.9126 18.8699 12.6551 19.117C12.5794 19.1898 12.2506 19.3456 12.1652 19.3456H10.7536V20.8597C10.7536 22.923 12.9156 24.4741 14.8705 24.1045C16.199 23.8537 17.6812 22.4836 17.6812 21.0653V19.3464H16.2695C16.1909 19.3464 15.8673 19.1905 15.7997 19.1237C15.6142 18.9397 15.5704 18.5723 15.6669 18.3333C15.6988 18.2546 15.9994 17.9607 16.0647 17.9607H17.6812V15.1894H16.2183C16.1894 15.1894 15.8784 15.0409 15.8368 15.0061C15.4286 14.6602 15.6698 13.8037 16.1152 13.8037H17.6804L17.6827 13.803Z" fill="#156EFB"/>
<path d="M22.5476 7.55743C24.7007 7.34814 27.1247 7.68138 29.306 7.54259C30.5833 7.63907 31.442 8.4963 31.5385 9.77509C31.6476 11.2238 31.635 13.5031 31.5415 14.96C31.468 16.0978 30.7681 17.1205 29.5628 17.2408C27.7043 17.4263 25.5542 17.1005 23.6646 17.2445C22.8712 17.6334 22.152 18.17 21.3794 18.6027C20.9846 18.7081 20.6216 18.5492 20.4777 18.1663L20.4591 9.47153C20.6372 8.38571 21.467 7.66208 22.5476 7.55669V7.55743ZM21.8388 16.6767C22.3435 16.4422 22.7695 16.0169 23.3061 15.8603L29.4997 15.844C29.9984 15.6658 30.1209 15.3571 30.155 14.8576C30.2664 13.2456 30.0675 11.5044 30.1521 9.87825C30.0912 9.22884 29.7906 8.97575 29.1538 8.92603C27.0928 8.76423 24.8217 9.04997 22.7376 8.929C22.5135 8.96462 22.3057 8.98763 22.129 9.14126C22.0674 9.1947 21.8388 9.52275 21.8388 9.5695V16.6774V16.6767Z" fill="#156EFB"/>
<path d="M25.978 13.0979C26.3617 13.0979 26.6727 12.7868 26.6727 12.4032C26.6727 12.0195 26.3617 11.7085 25.978 11.7085C25.5943 11.7085 25.2833 12.0195 25.2833 12.4032C25.2833 12.7868 25.5943 13.0979 25.978 13.0979Z" fill="#156EFB"/>
<path d="M23.9126 13.0968C24.295 13.0968 24.605 12.7868 24.605 12.4044C24.605 12.0219 24.295 11.7119 23.9126 11.7119C23.5301 11.7119 23.2201 12.0219 23.2201 12.4044C23.2201 12.7868 23.5301 13.0968 23.9126 13.0968Z" fill="#156EFB"/>
<path d="M28.0614 13.0964C28.4442 13.0964 28.7546 12.786 28.7546 12.4032C28.7546 12.0203 28.4442 11.71 28.0614 11.71C27.6785 11.71 27.3682 12.0203 27.3682 12.4032C27.3682 12.786 27.6785 13.0964 28.0614 13.0964Z" fill="#156EFB"/>
</svg>
