<svg width="50" height="50" viewBox="0 0 50 50" fill="none" xmlns="http://www.w3.org/2000/svg">
<path d="M19.6289 10.2344C19.6289 10.2344 22.2656 10.0391 22.2656 21.1719C22.2656 32.3047 20.5078 30.9375 18.6523 31.1328C18.6523 31.1328 22.5586 32.3047 23.5352 28.2031C24.5117 24.1016 23.8281 12.3828 23.8281 12.3828C23.8281 12.3828 21.1914 10.332 19.6289 10.2344Z" fill="#FBD5BC"/>
<path d="M19.6289 36.3183L19.6191 39.0771C20.8242 39.2246 22.582 39.4189 23.6494 40.0098C24.6699 40.5762 24.123 41.8769 23.0381 41.7744C22.752 41.7471 22.126 41.4346 21.7803 41.3389C19.6074 40.7363 17.5938 40.8135 15.4336 41.4062C14.8008 41.5801 13.5928 42.2578 13.3047 41.1719C12.9873 39.9765 14.8428 39.6465 15.7031 39.4473C16.3789 39.29 17.1064 39.168 17.7979 39.1445L17.7998 36.3535C17.1758 36.1738 16.4961 36.1103 15.8545 35.9209C11.7578 34.7129 8.67871 30.7324 8.67578 26.416C8.67578 25.6377 9.41309 25.0771 10.1211 25.5156C10.7168 25.8848 10.499 26.5908 10.5723 27.1572C11.8311 36.8476 25.5439 36.7207 26.8369 27.4209C26.9355 26.7148 26.707 25.4853 27.6963 25.373C28.9697 25.2285 28.7607 26.8174 28.6602 27.623C28.0791 32.2539 24.2402 35.8496 19.6299 36.3183H19.6289Z" fill="#F84112"/>
<path d="M18.5254 8.98143C21.9365 8.88964 24.794 11.4785 25.0918 14.8672C24.8858 18.7519 25.3565 22.9033 25.0918 26.7568C24.5606 34.499 12.8125 34.6719 12.3242 26.4863C12.1035 22.7822 12.4981 18.8633 12.3242 15.1367C12.4707 11.8291 15.1973 9.07128 18.5254 8.98143ZM23.2666 17.1992V14.8691C23.2666 13.539 21.96 11.9023 20.8145 11.3115C17.9854 9.85253 14.1504 11.915 14.1504 15.1396V17.0976C14.1504 17.1045 14.2442 17.1992 14.252 17.1992H16.2774C16.5098 17.1992 16.8467 17.707 16.8906 17.9394C16.9727 18.3711 16.584 19.0224 16.1426 19.0224H14.1504V22.5674C14.1504 22.5742 14.2442 22.6689 14.252 22.6689H16.2774C16.3574 22.6689 16.6358 22.8935 16.7061 22.9824C16.9942 23.3447 16.9903 23.8662 16.6514 24.1914C16.5518 24.2871 16.1192 24.4922 16.0069 24.4922H14.1494V26.4844C14.1494 29.1992 16.9942 31.2402 19.5664 30.7539C21.3145 30.4238 23.2647 28.6211 23.2647 26.7549V24.4932H21.4072C21.3037 24.4932 20.8779 24.2881 20.7891 24.2002C20.5449 23.958 20.4873 23.4746 20.6143 23.1601C20.6563 23.0566 21.0518 22.6699 21.1377 22.6699H23.2647V19.0234H21.3399C21.3018 19.0234 20.8926 18.8281 20.8379 18.7822C20.3008 18.3271 20.6182 17.2002 21.2041 17.2002H23.2637L23.2666 17.1992Z" fill="#F84112"/>
<path d="M29.668 8.98144C32.501 8.70605 35.6904 9.14452 38.5605 8.96191C40.2412 9.08886 41.3711 10.2168 41.498 11.8994C41.6416 13.8057 41.625 16.8047 41.502 18.7217C41.4053 20.2187 40.4844 21.5644 38.8984 21.7226C36.4531 21.9668 33.624 21.5381 31.1377 21.7275C30.0938 22.2393 29.1475 22.9453 28.1309 23.5146C27.6113 23.6533 27.1338 23.4443 26.9443 22.9404L26.9199 11.5C27.1543 10.0713 28.2461 9.11913 29.668 8.98046V8.98144ZM28.7354 20.9805C29.3994 20.6719 29.96 20.1123 30.666 19.9062L38.8154 19.8848C39.4717 19.6504 39.6328 19.2441 39.6777 18.5869C39.8242 16.4658 39.5625 14.1748 39.6738 12.0351C39.5938 11.1807 39.1982 10.8476 38.3604 10.7822C35.6484 10.5693 32.6602 10.9453 29.918 10.7861C29.623 10.833 29.3496 10.8633 29.1172 11.0654C29.0361 11.1357 28.7354 11.5674 28.7354 11.6289V20.9814V20.9805Z" fill="#F84112"/>
<path d="M34.1816 16.2715C34.6865 16.2715 35.0957 15.8622 35.0957 15.3574C35.0957 14.8526 34.6865 14.4434 34.1816 14.4434C33.6768 14.4434 33.2676 14.8526 33.2676 15.3574C33.2676 15.8622 33.6768 16.2715 34.1816 16.2715Z" fill="#F84112"/>
<path d="M31.4639 16.2705C31.9671 16.2705 32.375 15.8626 32.375 15.3594C32.375 14.8562 31.9671 14.4482 31.4639 14.4482C30.9607 14.4482 30.5527 14.8562 30.5527 15.3594C30.5527 15.8626 30.9607 16.2705 31.4639 16.2705Z" fill="#F84112"/>
<path d="M36.9229 16.2695C37.4266 16.2695 37.835 15.8612 37.835 15.3574C37.835 14.8537 37.4266 14.4453 36.9229 14.4453C36.4191 14.4453 36.0107 14.8537 36.0107 15.3574C36.0107 15.8612 36.4191 16.2695 36.9229 16.2695Z" fill="#F84112"/>
</svg>
