<svg width="50" height="50" viewBox="0 0 50 50" fill="none" xmlns="http://www.w3.org/2000/svg">
<path d="M34.2354 35.666L34.2451 11.2793L36.6611 10.9766L36.5518 34.9727L34.2354 35.666Z" fill="#BBF7F0"/>
<path d="M15.121 10.1729L36.7783 10.1533C37.1123 10.1279 37.5214 10.4707 37.5947 10.7773L37.624 35.8691C37.624 36.3105 37.2167 36.7158 36.7783 36.7148L15.3544 36.7119C13.583 37.0098 13.6289 39.4248 15.4814 39.5928L36.8974 39.5977C37.8505 39.8184 37.7675 41.2324 36.7783 41.2871H15.1015C13.6259 41.1123 12.4209 39.8584 12.3144 38.374C12.2871 37.9912 12.3789 37.6582 12.3828 37.3096C12.4677 29.168 12.3125 21.0215 12.3808 12.8789C12.5976 11.4795 13.707 10.3564 15.122 10.1709L15.121 10.1729ZM35.8671 11.9092H15.166C15.0253 11.9092 14.5859 12.2256 14.4755 12.3467C14.3359 12.5 14.0693 13.0049 14.0693 13.1934V35.2725L15.291 34.959H35.8671V11.9092Z" fill="#20BFBB"/>
<path d="M17.124 30.3408L32.7031 30.3252C33.8486 30.4414 33.9238 31.8379 32.8311 32.0791H17.1065C16.0742 31.8906 16.0733 30.501 17.124 30.3398V30.3408Z" fill="#20BFBB"/>
<path d="M17.0606 26.707L25.877 26.6914C26.9659 26.8086 26.9971 28.3252 25.877 28.4453H17.17C16.0987 28.3301 16.0586 26.9463 17.0596 26.7061L17.0606 26.707Z" fill="#20BFBB"/>
<path d="M28.082 14.9922C28.5732 14.8828 30.1865 14.959 30.668 15.1367C32.0615 15.6514 32.6943 17.2363 32.1201 18.5918C32.042 18.7754 31.7178 19.2022 31.7295 19.3291C31.7354 19.3877 32.0977 19.915 32.1631 20.0918C32.7656 21.7197 31.6963 23.4873 29.9502 23.625C29.5381 23.6572 28.5273 23.6768 28.1465 23.6084C27.8301 23.5508 27.5898 23.2373 27.4883 22.9512L27.4736 15.7627C27.4834 15.4473 27.7773 15.0606 28.082 14.9932V14.9922ZM29.2275 18.5488C29.7207 18.3672 30.1543 18.5166 30.4697 18.0059C30.9912 17.1592 30.0313 16.4971 29.2275 16.6699V18.5488ZM30.543 20.6162H29.2275V21.8691C30.1348 22.0107 30.8076 21.5986 30.543 20.6162Z" fill="#20BFBB"/>
<path d="M21.2597 14.8662C21.5214 14.8457 21.7773 14.9609 21.9609 15.1357C23.0693 17.6123 24.0918 20.168 25.0341 22.7119C25.1005 23.1416 24.8193 23.5459 24.4062 23.6553C23.2519 23.9619 23.0605 21.9482 22.6396 21.2842C22.6005 21.2217 22.5849 21.1768 22.4951 21.1777L20.082 21.209C19.9335 21.2988 19.4189 22.9072 19.2177 23.2256C18.6367 24.1455 17.3427 23.5732 17.6748 22.4336C18.3418 20.1367 19.7919 17.708 20.5292 15.3916C20.6591 15.0977 20.9394 14.8896 21.2597 14.8652V14.8662ZM20.7724 19.4883H21.8994C21.8251 19.3174 21.4365 18.1328 21.3662 18.1104C21.2509 18.0732 21.2177 18.2852 21.1826 18.3643C21.122 18.498 20.7285 19.4482 20.7714 19.4893L20.7724 19.4883Z" fill="#20BFBB"/>
</svg>
