<svg width="50" height="50" viewBox="0 0 50 50" fill="none" xmlns="http://www.w3.org/2000/svg">
<path d="M33.2031 39.3848L33.167 21.6055L35.7422 21.123V40.0684L33.2031 39.3848Z" fill="#9DF8F0"/>
<path d="M40.835 40.04C40.6621 40.2998 40.5127 40.542 40.1973 40.6494L8.88965 40.6807C8.01172 40.5371 7.80079 39.4063 8.542 38.9229C8.5918 38.8906 8.86426 38.7598 8.89063 38.7598H11.9287V31.8848C11.9287 31.6494 12.4121 31.085 12.6641 31.085H19.667V27.919C19.667 27.7617 20.1563 27.2471 20.3389 27.2471H27.3418V21.2676C27.3418 20.959 27.9238 20.4356 28.2686 20.4678C30.7686 20.6084 33.4697 20.2813 35.9453 20.4648C36.3145 20.4922 36.6231 20.5918 36.835 20.918C36.8672 20.9678 36.998 21.2402 36.998 21.2666V38.7578H40.0361C40.3291 38.7578 40.7481 39.2578 40.8359 39.5254V40.0371L40.835 40.04ZM29.2598 22.3897V38.7617H35.0791V22.3897H29.2598ZM27.3408 29.169H21.585V38.7617H27.3408V29.169ZM13.8467 33.0059V38.7617H19.666V33.0059H13.8467Z" fill="#0EC5C2"/>
<path d="M36.2129 10.8936C37.2988 10.6699 37.831 11.7295 37.1269 12.5752C35.8916 14.0586 34.124 15.3838 32.8418 16.8604C32.4765 17.1777 31.9131 17.1729 31.5293 16.8906C31.0644 16.5488 29.3945 14.8682 29.0332 14.3984C28.4238 13.6074 29.0635 12.6094 30.043 12.8135C30.5273 12.9141 32.0224 14.7803 32.168 14.7803L35.8437 11.1025C35.9443 11.0215 36.0849 10.9209 36.2119 10.8945L36.2129 10.8936Z" fill="#0EC5C2"/>
</svg>
