<svg width="50" height="51" viewBox="0 0 50 51" fill="none" xmlns="http://www.w3.org/2000/svg">
<g clip-path="url(#clip0_1151_9988)">
<path d="M10.4893 24.124C10.794 24.9365 11.5508 25.4609 12.418 25.4609H12.5743C12.7071 25.4609 12.8145 25.5684 12.8145 25.7012V38.7256C12.8145 39.7764 13.67 40.6318 14.7208 40.6318H19.9454C20.9961 40.6318 21.8516 39.7764 21.8516 38.7256V29.5752C21.8516 29.4424 21.959 29.335 22.0918 29.335H27.9073C28.0401 29.335 28.1475 29.4424 28.1475 29.5752V38.7256C28.1475 39.7764 29.003 40.6318 30.0538 40.6318H35.2803C36.3311 40.6318 37.1866 39.7764 37.1866 38.7256V25.6914C37.1866 25.4736 37.3936 25.457 37.4561 25.457C37.4629 25.457 37.4698 25.457 37.4766 25.457C37.5118 25.459 37.5459 25.459 37.5801 25.459C38.4473 25.459 39.2051 24.9346 39.5098 24.1221C39.8145 23.3096 39.5879 22.416 38.9346 21.8467L26.3487 10.874C25.9737 10.5469 25.4932 10.3672 24.9952 10.3672C24.4971 10.3672 24.0157 10.5479 23.6407 10.875L11.0635 21.8467C10.4102 22.417 10.1846 23.3105 10.4893 24.1221V24.124Z" fill="#11357C"/>
</g>
<defs>
<clipPath id="clip0_1151_9988">
<rect width="50" height="50" fill="white" transform="translate(0 0.5)"/>
</clipPath>
</defs>
</svg>
