<?xml version="1.0" encoding="UTF-8"?>
<svg id="Layer_1" data-name="Layer 1" xmlns="http://www.w3.org/2000/svg" viewBox="0 0 512 512">
  <path d="M420.78,201.69c-2.08-6.41-7.77-10.72-14.5-10.98l-95.87-3.79-33.23-90.01c-2.33-6.32-8.19-10.4-14.93-10.4s-12.59,4.08-14.93,10.4l-33.23,90.01-95.87,3.79c-6.73.27-12.42,4.58-14.5,10.98-2.08,6.41,0,13.24,5.28,17.41l75.33,59.42-26.02,92.35c-1.83,6.48.51,13.23,5.96,17.19,2.81,2.04,6.08,3.07,9.35,3.07,3.06,0,6.13-.9,8.84-2.71l79.79-53.29,79.79,53.28c5.6,3.74,12.74,3.6,18.19-.36,5.45-3.96,7.79-10.71,5.96-17.19l-26.02-92.35,75.33-59.42c5.29-4.17,7.36-11,5.28-17.41Z" fill="#156efb"/>
</svg>