<svg width="30" height="30" viewBox="0 0 30 30" fill="none" xmlns="http://www.w3.org/2000/svg">
<path d="M5.11048 19.9834C4.74603 19.609 4.51517 19.0512 4.47884 18.5314C4.31947 16.2451 4.60189 13.7742 4.48177 11.4685C4.85736 8.93319 7.32415 9.48104 9.21908 9.4078L17.0525 4.60955C18.0849 4.22049 19.0951 4.86033 19.2193 5.94022V24.1453C19.0997 25.1988 18.1294 25.8363 17.1134 25.5023C14.4667 23.9449 11.8769 22.2844 9.24954 20.6906C7.889 20.482 6.19036 21.0937 5.1099 19.984L5.11048 19.9834ZM17.765 5.92557C17.714 5.89334 17.5786 5.92616 17.5195 5.95428L10.1847 10.4607L10.1038 10.5556L10.1173 19.5609L17.407 24.0697C17.5493 24.1681 17.8154 24.2601 17.8171 24.0146V6.15936C17.8148 6.10955 17.7943 5.94373 17.7656 5.92557H17.765ZM8.69173 10.8322H6.56478C6.29876 10.8322 5.86927 11.3092 5.88509 11.5998C6.01048 13.8129 5.71869 16.2088 5.88333 18.4002C5.9056 18.6943 6.0099 18.9492 6.26478 19.115C6.30345 19.1402 6.54544 19.2539 6.56478 19.2539H8.69173V10.8328V10.8322Z" fill="white"/>
</svg>
