<svg width="38" height="38" viewBox="0 0 38 38" fill="none" xmlns="http://www.w3.org/2000/svg">
<path d="M10.3114 29.7714C8.11968 29.5621 6.11355 28.2974 4.97949 26.4226C2.28461 21.968 5.20289 16.3229 10.3062 15.7997L10.3121 7.72171C10.4316 6.59433 11.3697 5.71038 12.4927 5.60722L24.9035 5.60425L25.2843 5.70073L30.4514 10.8552L30.6547 11.2486L30.6607 30.0994C30.5404 31.3114 29.6409 32.2317 28.42 32.3334H12.552C11.222 32.2221 10.2 31.1318 10.3106 29.7721L10.3114 29.7714ZM24.2749 6.85929H12.552C12.1371 6.85929 11.6013 7.42929 11.5731 7.84862L11.5657 15.7685C12.0125 15.914 12.5045 15.9659 12.9714 16.1055C19.5137 18.0619 19.4714 27.5344 12.9869 29.4871C12.7457 29.5598 11.6146 29.7157 11.5768 29.7766C11.4751 29.9398 11.6703 30.4393 11.7809 30.5996C12.0177 30.9425 12.3925 31.0383 12.7888 31.0828H28.1253C28.6486 31.0412 29.0642 30.901 29.2809 30.3889C29.3084 30.325 29.4056 30.0163 29.4056 29.9769V11.9893H24.8419C24.6489 11.9893 24.2749 11.6219 24.2749 11.4223V6.85855V6.85929ZM28.4512 10.6771L25.5878 7.81374V10.6771H28.4512ZM16.6541 22.7881C16.6541 19.6271 14.0921 17.0651 10.9311 17.0651C7.77011 17.0651 5.20808 19.6271 5.20808 22.7881C5.20808 25.9491 7.77011 28.5111 10.9311 28.5111C14.0921 28.5111 16.6541 25.9491 16.6541 22.7881Z" fill="#156EFB"/>
<path d="M18.091 15.609C17.7185 15.2119 17.976 14.5484 18.5163 14.4942H24.9622C25.789 14.5937 25.789 15.7099 24.9622 15.8101H18.5163C18.385 15.8012 18.1757 15.6995 18.091 15.6097V15.609Z" fill="#156EFB"/>
<path d="M20.9773 18.3276L25.017 18.3179C25.7762 18.4953 25.7718 19.4483 25.017 19.6227C23.8005 19.4988 22.1974 19.8031 21.0277 19.6227C20.3048 19.5114 20.2662 18.5079 20.978 18.3276H20.9773Z" fill="#156EFB"/>
<path d="M13.3422 20.4747C13.9196 20.3797 14.2922 20.9371 14.0049 21.4381L10.3586 25.0696C10.0825 25.1832 9.85387 25.1015 9.62825 24.936C9.31133 24.703 8.20176 23.5867 7.9561 23.2676C7.41504 22.564 8.11789 21.8351 8.79329 22.3109C9.01 22.4638 9.96817 23.583 10.0973 23.56L13.0564 20.6091C13.1343 20.5393 13.2397 20.4925 13.3422 20.4755V20.4747Z" fill="#156EFB"/>
</svg>
