<svg width="35" height="36" viewBox="0 0 35 36" fill="none" xmlns="http://www.w3.org/2000/svg">
<path d="M24.3447 23.3341L24.3516 11.1853L26.0435 10.9727L25.9662 22.848L24.3447 23.3341Z" fill="#C2F2FF"/>
<path d="M26.7373 25.4512L26.7441 13.7146L28.436 13.502L28.3588 25.3773L26.7373 25.4512Z" fill="#C2F2FF"/>
<path d="M29.1198 25.4663C29.0083 25.6078 28.9448 25.7357 28.7629 25.804C21.3466 25.8286 13.9098 25.858 6.49761 25.789C6.32534 25.707 6.19341 25.5538 6.17017 25.3549L6.19204 13.407C6.21118 13.3018 6.47095 13.0502 6.55229 13.0502H8.45747V11.2346C8.45747 11.1232 8.70835 10.8819 8.82798 10.8436C8.96606 10.7985 9.34409 10.7738 9.51089 10.765C10.567 10.7062 11.7702 10.7841 12.8133 10.9577C14.5558 11.2483 16.206 11.923 17.66 12.9087C19.976 11.2715 22.9565 10.6064 25.7804 10.765C25.9472 10.7745 26.3259 10.7991 26.4633 10.8436C26.583 10.8825 26.8338 11.1238 26.8338 11.2346V13.0502H28.739C28.8819 13.0502 29.063 13.3325 29.1198 13.4535V25.4656V25.4663ZM17.107 24.2564V13.8801C14.955 12.26 12.1926 11.7398 9.53208 11.8409V22.464C10.8562 22.4366 12.1831 22.5132 13.4771 22.7996C14.7588 23.0833 15.9832 23.5892 17.107 24.257V24.2564ZM25.7579 11.8409C23.0966 11.7404 20.3376 12.2627 18.183 13.8801V24.2564C20.4545 22.8735 23.1062 22.3662 25.7579 22.4633V11.8403V11.8409ZM8.45679 14.1269H7.24683V24.7499H15.7179C15.694 24.6816 15.5477 24.6392 15.4793 24.6077C14.0438 23.9487 12.4367 23.6028 10.8548 23.54C10.2601 23.5167 9.40835 23.6623 8.88608 23.5817C8.70288 23.5536 8.45747 23.3424 8.45747 23.1585V14.1269H8.45679ZM28.0438 14.1269H26.8338V23.1585C26.8338 23.3417 26.5884 23.5529 26.4052 23.5817C25.883 23.6623 25.0312 23.5167 24.4365 23.54C22.8594 23.6022 21.2434 23.9501 19.812 24.6077C19.7436 24.6392 19.5966 24.6816 19.5734 24.7499H28.0445V14.1269H28.0438Z" fill="#156EFB"/>
</svg>
