<svg width="21" height="21" viewBox="0 0 21 21" fill="none" xmlns="http://www.w3.org/2000/svg">
<path d="M2.28442 0.262402L18.638 0.248047C19.8213 0.341016 20.7209 1.25361 20.8214 2.43145V12.7776C20.7093 13.9883 19.8111 14.8763 18.5922 14.9617H2.40815C1.24058 14.8694 0.350537 13.9808 0.226807 12.8214V2.38838C0.343018 1.27686 1.17222 0.406641 2.28442 0.263086V0.262402ZM2.37466 1.73213C1.99526 1.82168 1.71909 2.12861 1.69517 2.52373V12.686C1.72046 13.1222 2.06499 13.4653 2.49976 13.4906H18.5464C18.9826 13.4653 19.3257 13.1208 19.351 12.686V2.52373C19.3257 2.0876 18.9812 1.74443 18.5464 1.71914L2.37466 1.73213Z" fill="#156EFB"/>
<path d="M16.2763 17.1591L20.2706 17.1871C21.0628 17.4113 20.976 18.5495 20.153 18.6377L16.2996 18.6356C15.5168 20.575 12.8891 20.5634 12.1009 18.6356L0.892725 18.6377C0.00336911 18.5119 0.00336911 17.2924 0.892725 17.1666L12.1009 17.1686C12.8652 15.2607 15.5312 15.2136 16.2763 17.1591ZM14.9399 17.9021C14.9399 17.494 14.609 17.1632 14.2009 17.1632C13.7928 17.1632 13.462 17.494 13.462 17.9021C13.462 18.3102 13.7928 18.6411 14.2009 18.6411C14.609 18.6411 14.9399 18.3102 14.9399 17.9021Z" fill="#156EFB"/>
<path d="M8.90236 4.67347C9.11906 4.6386 9.21203 4.67552 9.4048 4.74593C10.8568 5.2764 12.3853 6.38313 13.8482 6.96829C14.339 7.30393 14.3205 7.94583 13.8188 8.25686C12.3627 8.83587 10.8486 9.93372 9.4048 10.4621C8.85861 10.6624 8.42248 10.458 8.31652 9.87972C8.43478 8.43733 8.15861 6.74065 8.31652 5.32835C8.35138 5.01595 8.58654 4.72405 8.90236 4.67278V4.67347ZM9.78761 6.593V8.61575L11.7646 7.58216L9.78761 6.59368V6.593Z" fill="#156EFB"/>
</svg>
