<svg width="16" height="16" viewBox="0 0 16 16" fill="none" xmlns="http://www.w3.org/2000/svg">
<path d="M11.4048 0.0214983C11.846 -0.0472935 12.3118 0.04828 12.6668 0.318721C13.5286 1.33379 14.8626 2.28427 15.6651 3.31195C16.0968 3.86438 16.1141 4.64105 15.6998 5.20661L5.01542 15.8972L4.75702 15.9628C3.39732 15.8699 1.88479 16.0815 0.543475 15.9628C0.196329 15.9323 0.0681838 15.8026 0.0371979 15.4566C-0.0814936 14.1154 0.130155 12.603 0.0371979 11.2435L0.119652 10.9615L10.7662 0.31452C10.9059 0.207394 11.2346 0.0482798 11.4048 0.0214983ZM11.6075 0.871155C11.4873 0.890585 11.3497 0.969354 11.2525 1.04287C10.9657 1.26185 10.0351 2.19238 9.81507 2.47962C9.79196 2.51008 9.7489 2.52741 9.75835 2.57625L13.4541 6.24216L14.9955 4.70406C15.225 4.36903 15.1667 4.0424 14.8978 3.75463C13.9808 2.98375 13.1453 1.81376 12.2251 1.08331C12.035 0.93207 11.8633 0.830195 11.6075 0.871155ZM0.93001 15.0701H4.63413L12.7876 6.9054L9.21111 3.24788L9.12813 3.2085L9.04515 3.24788L0.93001 11.3664V15.0701Z" fill="#E0E0E0"/>
</svg>
