<svg width="20" height="16" viewBox="0 0 20 16" fill="none" xmlns="http://www.w3.org/2000/svg">
<path d="M5.21282 6.41148C6.21124 6.41148 7.02061 5.6021 7.02061 4.60369C7.02061 3.60527 6.21124 2.7959 5.21282 2.7959C4.21441 2.7959 3.40503 3.60527 3.40503 4.60369C3.40503 5.6021 4.21441 6.41148 5.21282 6.41148Z" fill="#156EFB"/>
<path d="M1.58322 3.1214C1.58322 2.28011 2.26553 1.5978 3.10683 1.5978H16.0601C16.9014 1.5978 17.5837 2.28011 17.5837 3.1214V8.8283L19.1676 10.4122V3.1797C19.1676 1.42358 17.744 0 15.9879 0H3.1797C1.42358 0 0 1.42358 0 3.1797V12.8195C0 12.944 0.00794936 13.0666 0.0218605 13.1871L1.58389 11.6251V3.1214H1.58322Z" fill="#156EFB"/>
<path d="M3.17957 15.9994H4.46668L3.40546 14.9382L3.94203 14.4016H3.10736C2.26606 14.4016 1.58375 13.7193 1.58375 12.878V11.626L0.0217285 13.188C0.203899 14.7706 1.54798 16 3.17957 16V15.9994Z" fill="#156EFB"/>
<path d="M17.5839 12.8776C17.5839 13.7189 16.9016 14.4012 16.0603 14.4012H11.314L12.4282 15.5154L11.9439 15.9997H15.9875C17.7436 15.9997 19.1672 14.5761 19.1672 12.82V10.412L17.5833 8.82812V12.8776H17.5839Z" fill="#156EFB"/>
<path d="M11.3139 14.4014H3.9416L3.40503 14.9379L4.46625 15.9992H11.9438L12.4281 15.5156L11.3139 14.4014Z" fill="#156EFB"/>
<path d="M14.6264 5.87144C14.0315 5.27658 13.067 5.27658 12.4715 5.87144L8.00202 10.3409C7.79534 10.5476 7.45949 10.5476 7.25281 10.3409L5.81002 8.89812C5.39599 8.4841 4.72495 8.4841 4.31092 8.89812L1.58301 11.626V12.878C1.58301 13.1609 1.66051 13.4259 1.79499 13.6531L4.31092 11.1372C4.72495 10.7231 5.39599 10.7231 5.81002 11.1372L7.25281 12.5799C7.45949 12.7866 7.79534 12.7866 8.00202 12.5799L12.4715 8.11048C13.0664 7.51561 14.0309 7.51561 14.6264 8.11048L17.5835 11.0676V8.82856L14.6264 5.87144Z" fill="#156EFB"/>
</svg>
