<svg width="50" height="50" viewBox="0 0 50 50" fill="none" xmlns="http://www.w3.org/2000/svg">
<path d="M44.8486 24.0645L23.8945 45.0195L20.7852 45.0449L43.2324 22.4482L44.8486 24.0645Z" fill="#C2F2FF"/>
<path d="M16.7305 5.9453C17.6055 5.81933 18.3652 6.36327 18.4834 7.23925L18.4814 24.6113C18.3027 25.6533 17.2578 26.1748 16.2978 25.7178L9.04003 21.2432C8.22363 21.1719 7.32812 21.3047 6.52148 21.2324C5.52636 21.1435 4.62988 20.3203 4.5498 19.3066C4.37597 17.1103 4.68261 14.6855 4.55175 12.4658C4.95117 10.1035 7.29687 10.6416 9.06738 10.5557C11.3769 9.20019 13.5937 7.66991 15.9141 6.333C16.1631 6.18944 16.4404 5.98827 16.7295 5.94628L16.7305 5.9453ZM17.1035 7.31249C17.0801 7.28808 17.0371 7.27929 17.0039 7.27148L9.86523 11.6211V20.1894L16.9746 24.5391C17.1445 24.5371 17.1445 24.4189 17.1562 24.2812V7.52929C17.1514 7.46386 17.1494 7.36132 17.1025 7.31347L17.1035 7.31249ZM8.53222 11.9463H6.48046C6.23046 11.9463 5.85253 12.4521 5.87988 12.7139C5.99414 14.7656 5.72656 16.9844 5.87792 19.0166C5.8916 19.2051 5.91992 19.3711 6.02734 19.5303C6.09667 19.6328 6.36328 19.8643 6.48046 19.8643H8.53222V11.9463Z" fill="#156EFB"/>
<path d="M22.3682 11.499C22.8115 11.4336 23.0625 11.8291 23.2822 12.1406C24.7559 14.2295 24.8369 17.0469 23.5713 19.2549C23.2793 19.7647 22.6172 20.8779 21.9463 20.1504C21.4629 19.626 22.1065 19.0772 22.3692 18.6328C23.4326 16.834 23.3272 14.7324 22.2285 12.9863C22.0059 12.6318 21.7022 12.4795 21.8067 11.9766C21.8545 11.748 22.1436 11.5322 22.3672 11.499H22.3682Z" fill="#156EFB"/>
<path d="M20.2949 13.2822C20.7207 13.1943 20.999 13.502 21.2197 13.8311C21.8106 14.7158 21.9404 16.001 21.6631 17.0127C21.501 17.6035 20.9092 19.0127 20.1025 18.4727C19.3897 17.9961 20.127 17.3408 20.3086 16.8184C20.6016 15.9775 20.4658 15.291 20.0664 14.5283C19.9141 14.2373 19.7344 14.168 19.8193 13.7578C19.8565 13.5772 20.1152 13.3184 20.2959 13.2813L20.2949 13.2822Z" fill="#156EFB"/>
<path d="M36.959 16.3037C37.7793 16.1758 38.6455 16.3535 39.3057 16.8564C40.9082 18.7441 43.3887 20.5117 44.8809 22.4229C45.6836 23.4502 45.7158 24.8945 44.9453 25.9463L25.0781 45.8271L24.5977 45.9492C22.0694 45.7764 19.2569 46.1699 16.7627 45.9492C16.1172 45.8926 15.8789 45.6514 15.8213 45.0078C15.6006 42.5137 15.9942 39.7012 15.8213 37.1729L15.9746 36.6484L35.7715 16.8486C36.0313 16.6494 36.6416 16.3535 36.958 16.3037H36.959ZM37.336 17.8848C37.1123 17.9209 36.8565 18.0674 36.6758 18.2041C36.1426 18.6113 34.4121 20.3418 34.0029 20.876C33.96 20.9326 33.8799 20.9648 33.8975 21.0557L40.7696 27.8731L43.6358 25.0127C44.0625 24.3897 43.9541 23.7822 43.4541 23.2471C41.749 21.8135 40.1953 19.6377 38.4844 18.2793C38.1309 17.998 37.8106 17.8076 37.335 17.8838L37.336 17.8848ZM17.4815 44.29H24.3692L39.5303 29.1064L32.8799 22.3047L32.7256 22.2314L32.5713 22.3047L17.4815 37.4023V44.29Z" fill="#156EFB"/>
</svg>
