<svg width="50" height="50" viewBox="0 0 50 50" fill="none" xmlns="http://www.w3.org/2000/svg">
<path d="M25.335 11.6328C25.335 11.6328 29.6416 18.5898 26.5498 23.4492C24.4746 26.71 20.6865 28.1367 16.1641 28.2227C16.1641 28.2227 22.5742 30.7383 26.9912 25.9893C31.4082 21.2402 28.5371 11.9639 25.335 11.6328Z" fill="#C2F2FF"/>
<path d="M36.7129 23.5312C36.7129 23.5312 41.0195 30.4883 37.9277 35.3477C35.8525 38.6084 32.5137 39.5723 26.8809 39.6826L30.415 41.0078L40.2432 40.4561C40.2432 40.4561 40.9775 33.8125 40.4639 29.5234C39.9746 25.4346 38.2754 23.6934 36.7119 23.5322L36.7129 23.5312Z" fill="#C2F2FF"/>
<path d="M27.3018 11.4677C29.3751 13.5312 30.6124 16.4775 30.584 19.415C35.4942 19.3583 39.9571 22.7392 41.3301 27.4199C42.1124 30.0849 41.9083 32.7812 40.8096 35.3212C40.9288 37.0507 41.7403 39.1201 41.8145 40.8017C41.8448 41.4882 41.3458 41.9003 40.6807 41.8662C39.0108 41.7812 36.9776 40.9892 35.2618 40.8681C34.3565 41.2128 33.4336 41.5546 32.4708 41.7138C25.6172 42.8486 19.3399 37.5771 19.3555 30.6435C17.7374 30.6884 16.1641 30.2607 14.6749 29.6689C12.959 29.8056 11.0167 30.5312 9.33697 30.6425C8.55572 30.6943 8.06939 30.3222 8.13287 29.5087C8.2647 27.8154 8.95123 25.8681 9.14458 24.1484C6.9483 19.2949 8.43169 13.5156 12.7061 10.374C17.1592 7.10151 23.3917 7.57515 27.3018 11.4667V11.4677ZM10.2745 28.4951C11.8477 28.3203 13.3809 27.8564 14.9561 27.7294C19.7793 30.0761 25.7198 28.1953 27.8926 23.205C31.0899 15.8613 24.2647 8.19038 16.5977 10.5244C10.917 12.2539 8.50005 18.7128 11.1055 23.9541L10.2735 28.4951H10.2745ZM39.6641 39.7246L38.8282 35.1162C39.0381 34.4628 39.3594 33.8564 39.544 33.1923C41.2237 27.1513 36.6778 21.2304 30.4405 21.3154C29.6241 25.9707 25.9112 29.6835 21.2569 30.5C21.1729 36.8007 27.2081 41.3623 33.2872 39.5507C33.8936 39.3701 34.4444 39.0517 35.0577 38.8896L39.6641 39.7246Z" fill="#156EFB"/>
<path d="M32.5859 33.4951L28.6201 33.4844C28.5009 33.5127 27.8496 35.4648 27.6855 35.7539C27.1035 36.7793 25.5615 36.0869 25.9365 34.9746L29.6816 25.6201C30.0019 24.8525 31.0097 24.8037 31.4287 25.5371L35.2109 34.9941C35.4257 35.8408 34.6611 36.5674 33.8613 36.1357C33.2568 35.8096 32.8789 34.1348 32.5849 33.4961L32.5859 33.4951ZM31.623 31.5459C31.6386 31.2724 31.5478 31.0195 31.4677 30.7656C31.3378 30.3545 30.9375 29.2754 30.7363 28.9316C30.6904 28.8525 30.666 28.7666 30.5498 28.7715L29.4052 31.5459H31.623Z" fill="#156EFB"/>
<path d="M18.7852 13.8213C23.5762 13.3536 26.669 18.6729 23.9971 22.6397C24.4395 23.2256 25.5127 23.9288 24.7295 24.7559C23.9277 25.6026 23.1592 24.5137 22.5781 24.0586C18.292 26.9161 12.708 23.1631 13.8984 18.084C14.4316 15.8086 16.4541 14.0479 18.7852 13.8204V13.8213ZM21.1563 22.6719C21.2383 22.5606 20.625 22.0723 20.5332 21.9444C19.8047 20.9327 20.8604 19.8809 21.7754 20.4942C21.9971 20.6426 22.29 21.0899 22.4717 21.1846C22.5732 21.2383 22.5762 21.2256 22.6455 21.1465C22.8877 20.8711 23.1065 19.6905 23.1025 19.3096C23.0576 14.8643 16.4492 14.4102 15.7256 18.5938C15.166 21.8311 18.2451 24.0596 21.1563 22.6719Z" fill="#156EFB"/>
</svg>
