<svg width="50" height="50" viewBox="0 0 50 50" fill="none" xmlns="http://www.w3.org/2000/svg">
<path d="M10.1563 39.5918L10.1201 12.0459L12.6953 11.5645V40.2754L10.1563 39.5918Z" fill="#C2F2FF"/>
<path d="M26.5107 41.5195H12.248C10.4248 41.5195 8.94238 40.0361 8.94238 38.2139V13.2812C8.94238 11.458 10.4258 9.97559 12.248 9.97559H31.2842C33.1074 9.97559 34.5898 11.459 34.5898 13.2812V25.001C34.5898 25.54 34.1523 25.9775 33.6133 25.9775C33.0742 25.9775 32.6367 25.54 32.6367 25.001V13.2812C32.6367 12.5352 32.0303 11.9287 31.2842 11.9287H12.248C11.502 11.9287 10.8955 12.5352 10.8955 13.2812V38.2139C10.8955 38.96 11.502 39.5664 12.248 39.5664H26.5107C27.0498 39.5664 27.4873 40.0039 27.4873 40.543C27.4873 41.082 27.0498 41.5195 26.5107 41.5195Z" fill="#156EFB"/>
<path d="M40.4941 34.7158C40.1133 34.7158 39.751 34.4912 39.5937 34.1182C39.5303 33.9707 37.9512 30.4189 33.9082 30.4189C29.8652 30.4189 27.6719 34.0635 27.584 34.2188C27.3184 34.6865 26.7236 34.8535 26.2549 34.5889C25.7861 34.3252 25.6182 33.7324 25.8809 33.2627C25.9902 33.0664 28.623 28.4658 33.9082 28.4658C39.1934 28.4658 41.3086 33.1602 41.3936 33.3604C41.6035 33.8574 41.3701 34.4297 40.873 34.6396C40.749 34.6914 40.6211 34.7168 40.4941 34.7168V34.7158Z" fill="#156EFB"/>
<path d="M33.9082 39.0166C28.623 39.0166 25.9902 34.415 25.8809 34.2197C25.6172 33.749 25.7861 33.1543 26.2568 32.8906C26.7266 32.6279 27.3203 32.7949 27.584 33.2637C27.6729 33.4199 29.7871 37.0625 33.9082 37.0625C38.0293 37.0625 39.5303 33.5107 39.5947 33.3594C39.8076 32.8652 40.3809 32.6357 40.875 32.8457C41.3701 33.0566 41.6016 33.626 41.3926 34.1211C41.3086 34.3213 39.2676 39.0156 33.9072 39.0156L33.9082 39.0166Z" fill="#156EFB"/>
<path d="M33.7217 35.1211C32.8857 35.1211 32.2061 34.4414 32.2061 33.6055C32.2061 32.7695 32.8857 32.0898 33.7217 32.0898C34.5576 32.0898 35.2373 32.7695 35.2373 33.6055C35.2373 34.4414 34.5576 35.1211 33.7217 35.1211ZM33.7217 33.168C33.4805 33.168 33.2842 33.3643 33.2842 33.6055C33.2842 33.8467 33.4805 34.043 33.7217 34.043C33.9629 34.043 34.1592 33.8467 34.1592 33.6055C34.1592 33.3643 33.9629 33.168 33.7217 33.168Z" fill="#156EFB"/>
<path d="M27.5957 18.7637H15.1074C14.5684 18.7637 14.1309 18.3262 14.1309 17.7871C14.1309 17.248 14.5684 16.8105 15.1074 16.8105H27.5957C28.1348 16.8105 28.5723 17.248 28.5723 17.7871C28.5723 18.3262 28.1348 18.7637 27.5957 18.7637Z" fill="#156EFB"/>
<path d="M21.7666 25.9766H15.1084C14.5693 25.9766 14.1318 25.5391 14.1318 25C14.1318 24.4609 14.5693 24.0234 15.1084 24.0234H21.7666C22.3057 24.0234 22.7432 24.4609 22.7432 25C22.7432 25.5391 22.3057 25.9766 21.7666 25.9766Z" fill="#156EFB"/>
</svg>
