<svg width="50" height="50" viewBox="0 0 50 50" fill="none" xmlns="http://www.w3.org/2000/svg">
<path d="M39.4434 39.0186H14.4844V41.3047H39.4434V39.0186Z" fill="#FBD1CF"/>
<path d="M13.5674 39.1729C10.6836 38.8975 8.04392 37.2334 6.55173 34.7666C3.00584 28.9053 6.84568 21.4775 13.5605 20.7891L13.5683 10.1602C13.7256 8.67676 14.9599 7.51367 16.4375 7.37793L32.7676 7.37402L33.2685 7.50098L40.0674 14.2832L40.3349 14.8008L40.3427 39.6045C40.1845 41.1992 39.001 42.4102 37.3945 42.5439H16.5156C14.7656 42.3975 13.4209 40.9629 13.5664 39.1738L13.5674 39.1729ZM31.9404 9.02539H16.5156C15.9697 9.02539 15.2646 9.77539 15.2275 10.3271L15.2177 20.748C15.8056 20.9395 16.4531 21.0078 17.0674 21.1914C25.6758 23.7656 25.6201 36.2295 17.0879 38.7988C16.7705 38.8945 15.2822 39.0996 15.2324 39.1797C15.0986 39.3945 15.3554 40.0518 15.501 40.2627C15.8125 40.7139 16.3056 40.8398 16.8271 40.8984H37.0068C37.6953 40.8438 38.2422 40.6592 38.5273 39.9854C38.5634 39.9014 38.6914 39.4951 38.6914 39.4434V15.7754H32.6865C32.4326 15.7754 31.9404 15.292 31.9404 15.0293V9.02441V9.02539ZM37.4355 14.0488L33.6679 10.2812V14.0488H37.4355ZM21.9131 29.9844C21.9131 25.8252 18.542 22.4541 14.3828 22.4541C10.2236 22.4541 6.85251 25.8252 6.85251 29.9844C6.85251 34.1436 10.2236 37.5146 14.3828 37.5146C18.542 37.5146 21.9131 34.1436 21.9131 29.9844Z" fill="#ED1220"/>
<path d="M23.8037 20.5381C23.3135 20.0156 23.6523 19.1426 24.3633 19.0713H32.8447C33.9326 19.2021 33.9326 20.6709 32.8447 20.8027H24.3633C24.1904 20.791 23.915 20.6572 23.8037 20.5391V20.5381Z" fill="#ED1220"/>
<path d="M27.6016 24.1152L32.9171 24.1025C33.9161 24.3359 33.9102 25.5898 32.9171 25.8193C31.3165 25.6563 29.2071 26.0566 27.668 25.8193C26.7169 25.6729 26.6661 24.3525 27.6026 24.1152H27.6016Z" fill="#ED1220"/>
<path d="M17.5557 26.9404C18.3154 26.8154 18.8057 27.5488 18.4278 28.208L13.6299 32.9863C13.2666 33.1357 12.9658 33.0283 12.669 32.8105C12.252 32.5039 10.792 31.0352 10.4688 30.6152C9.75685 29.6895 10.6817 28.7305 11.5703 29.3564C11.8555 29.5576 13.1162 31.0303 13.2862 31L17.1797 27.1172C17.2822 27.0254 17.4209 26.9639 17.5557 26.9414V26.9404Z" fill="#ED1220"/>
</svg>
