<svg width="50" height="50" viewBox="0 0 50 50" fill="none" xmlns="http://www.w3.org/2000/svg">
<g filter="url(#filter0_d_1085_994)">
<path d="M31.5439 26.749V11.7002H29.2578V26.749H31.5439Z" fill="#FBE5B5"/>
</g>
<g filter="url(#filter1_d_1085_994)">
<path d="M38.9658 38.165V19.2197H36.6797V38.165H38.9658Z" fill="#FBE5B5"/>
</g>
<g filter="url(#filter2_d_1085_994)">
<path d="M33.2969 17.7969H37.5732C38.9092 17.7969 40.457 19.3486 40.5332 20.6846V38.5938C40.2529 40.1572 38.4629 40.7656 37.2481 39.7588L33.3916 35.4854L19.5254 35.4785C18.1934 35.3721 16.6299 33.8828 16.6299 32.5254V28.249C16.46 28.2451 16.334 28.4287 16.2266 28.54C14.999 29.8184 13.8955 31.2285 12.6475 32.4902C11.5781 33.4131 9.93458 32.9736 9.46192 31.6514C9.29883 25.5986 9.44141 19.5098 9.38965 13.4434C9.58008 11.9307 10.7666 10.7461 12.2773 10.5557L30.4082 10.5586C31.7451 10.6348 33.2959 12.1826 33.2959 13.5186V17.7949L33.2969 17.7969ZM11.4404 30.6621C11.6397 30.5186 11.8232 30.3311 11.9893 30.1514C13.0469 29.0117 14.0742 27.6885 15.166 26.6035C15.3721 26.3984 15.5166 26.2266 15.8213 26.1631L30.1162 26.1309C30.8008 26.0049 31.1279 25.6104 31.1787 24.9277C31.4492 21.2969 30.9697 17.333 31.1758 13.667C31.0996 12.9951 30.5313 12.6396 29.8994 12.6045L12.6445 12.6064C12.1523 12.6045 11.4385 13.1738 11.4385 13.667V30.6631L11.4404 30.6621ZM38.4873 37.9717V20.9033C38.4873 20.6006 37.8867 19.916 37.5732 19.916H33.2969V25.2891C33.2969 26.7568 31.4639 28.25 30.0439 28.25H18.75V32.5264C18.75 32.585 19.0361 33.0293 19.1201 33.1064C19.3691 33.3379 19.7061 33.3906 20.0303 33.4385L34.1787 33.4707C34.4619 33.5381 34.835 33.9824 35.0527 34.2051C36.2363 35.415 37.2666 36.793 38.4863 37.9717H38.4873Z" fill="#ED7F31"/>
</g>
<defs>
<filter id="filter0_d_1085_994" x="24.2578" y="10.7002" width="12.2861" height="25.0488" filterUnits="userSpaceOnUse" color-interpolation-filters="sRGB">
<feFlood flood-opacity="0" result="BackgroundImageFix"/>
<feColorMatrix in="SourceAlpha" type="matrix" values="0 0 0 0 0 0 0 0 0 0 0 0 0 0 0 0 0 0 127 0" result="hardAlpha"/>
<feOffset dy="4"/>
<feGaussianBlur stdDeviation="2.5"/>
<feComposite in2="hardAlpha" operator="out"/>
<feColorMatrix type="matrix" values="0 0 0 0 0 0 0 0 0 0 0 0 0 0 0 0 0 0 0.05 0"/>
<feBlend mode="normal" in2="BackgroundImageFix" result="effect1_dropShadow_1085_994"/>
<feBlend mode="normal" in="SourceGraphic" in2="effect1_dropShadow_1085_994" result="shape"/>
</filter>
<filter id="filter1_d_1085_994" x="31.6797" y="18.2197" width="12.2861" height="28.9453" filterUnits="userSpaceOnUse" color-interpolation-filters="sRGB">
<feFlood flood-opacity="0" result="BackgroundImageFix"/>
<feColorMatrix in="SourceAlpha" type="matrix" values="0 0 0 0 0 0 0 0 0 0 0 0 0 0 0 0 0 0 127 0" result="hardAlpha"/>
<feOffset dy="4"/>
<feGaussianBlur stdDeviation="2.5"/>
<feComposite in2="hardAlpha" operator="out"/>
<feColorMatrix type="matrix" values="0 0 0 0 0 0 0 0 0 0 0 0 0 0 0 0 0 0 0.05 0"/>
<feBlend mode="normal" in2="BackgroundImageFix" result="effect1_dropShadow_1085_994"/>
<feBlend mode="normal" in="SourceGraphic" in2="effect1_dropShadow_1085_994" result="shape"/>
</filter>
<filter id="filter2_d_1085_994" x="4.38092" y="9.55566" width="41.1523" height="39.696" filterUnits="userSpaceOnUse" color-interpolation-filters="sRGB">
<feFlood flood-opacity="0" result="BackgroundImageFix"/>
<feColorMatrix in="SourceAlpha" type="matrix" values="0 0 0 0 0 0 0 0 0 0 0 0 0 0 0 0 0 0 127 0" result="hardAlpha"/>
<feOffset dy="4"/>
<feGaussianBlur stdDeviation="2.5"/>
<feComposite in2="hardAlpha" operator="out"/>
<feColorMatrix type="matrix" values="0 0 0 0 0 0 0 0 0 0 0 0 0 0 0 0 0 0 0.05 0"/>
<feBlend mode="normal" in2="BackgroundImageFix" result="effect1_dropShadow_1085_994"/>
<feBlend mode="normal" in="SourceGraphic" in2="effect1_dropShadow_1085_994" result="shape"/>
</filter>
</defs>
</svg>
