<svg width="50" height="50" viewBox="0 0 50 50" fill="none" xmlns="http://www.w3.org/2000/svg">
<path d="M26.1094 25.9854C26.1094 25.9854 31.6406 28.6133 31.6406 37.793H34.4199C34.4199 37.793 35.7139 26.874 26.1094 25.9854Z" fill="#F7E2B2"/>
<path d="M26.3672 12.4023C26.3672 12.4023 28.0127 14.1562 28.0273 16.4062C28.042 18.6562 27.376 19.0352 26.3672 20.3818C26.3672 20.3818 33.5938 16.6992 26.3672 12.4023Z" fill="#F7E2B2"/>
<path d="M24.2403 24.0908C27.5264 23.873 30.6504 25.1777 32.8428 27.5937C33.3203 27.3828 33.7715 27.1337 34.292 27.0293C36.9815 26.4892 39.5244 28.4277 39.7334 31.1572C39.9121 33.4902 39.5996 36.0361 39.7364 38.3916C39.7061 38.913 39.3506 39.3544 38.8096 39.3779H11.5489C11.0645 39.3642 10.6709 38.9892 10.625 38.5087C10.7569 36.1738 10.4492 33.6484 10.625 31.3369C10.8731 28.0937 14.3662 25.9921 17.3399 27.3515C19.1299 25.4628 21.625 24.2646 24.2403 24.0908ZM33.5772 37.4628C33.6299 34.7832 33.7432 32.4072 32.2871 30.0556C29.0723 24.8662 21.5606 24.5996 17.9873 29.5537C16.2217 32.0009 16.2813 34.5498 16.3623 37.4628H33.5772ZM12.5371 31.3359V37.4628H14.4502C14.4297 35.1679 14.3106 33.0556 15.1231 30.873C15.378 30.1875 15.7471 29.5693 16.0645 28.916C14.4912 28.5234 12.7285 29.7255 12.5381 31.3369L12.5371 31.3359ZM37.8213 37.4628V31.1562C37.8213 30.913 37.5332 30.2548 37.3926 30.0312C36.7002 28.9326 35.1348 28.4882 34.002 29.1826C35.5987 31.6962 35.5655 34.5781 35.4903 37.4619H37.8213V37.4628Z" fill="#ED7F31"/>
<path d="M30.7109 16.4229C30.7109 19.5928 28.1406 22.1631 24.9707 22.1631C21.8008 22.1631 19.2305 19.5928 19.2305 16.4229C19.2305 13.2529 21.8008 10.6826 24.9707 10.6826C28.1406 10.6826 30.7109 13.2529 30.7109 16.4229ZM28.7949 16.4219C28.7949 14.3086 27.082 12.5957 24.9687 12.5957C22.8555 12.5957 21.1426 14.3086 21.1426 16.4219C21.1426 18.5352 22.8555 20.248 24.9687 20.248C27.082 20.248 28.7949 18.5352 28.7949 16.4219Z" fill="#ED7F31"/>
<path d="M19.2354 22.1611C19.2354 24.2764 17.5205 25.9902 15.4062 25.9902C13.292 25.9902 11.5771 24.2754 11.5771 22.1611C11.5771 20.0469 13.292 18.332 15.4062 18.332C17.5205 18.332 19.2354 20.0469 19.2354 22.1611ZM17.3174 22.1602C17.3174 21.1045 16.4609 20.248 15.4053 20.248C14.3496 20.248 13.4932 21.1045 13.4932 22.1602C13.4932 23.2158 14.3496 24.0723 15.4053 24.0723C16.4609 24.0723 17.3174 23.2158 17.3174 22.1602Z" fill="#ED7F31"/>
<path d="M39.042 22.1602C39.042 24.2734 37.3291 25.9863 35.2158 25.9863C33.1025 25.9863 31.3896 24.2734 31.3896 22.1602C31.3896 20.0469 33.1025 18.334 35.2158 18.334C37.3291 18.334 39.042 20.0469 39.042 22.1602ZM37.126 22.1611C37.126 21.1064 36.2705 20.251 35.2158 20.251C34.1611 20.251 33.3057 21.1064 33.3057 22.1611C33.3057 23.2158 34.1611 24.0713 35.2158 24.0713C36.2705 24.0713 37.126 23.2158 37.126 22.1611Z" fill="#ED7F31"/>
</svg>
