<svg width="50" height="50" viewBox="0 0 50 50" fill="none" xmlns="http://www.w3.org/2000/svg">
<path d="M27.1719 40.8369L32.3242 22.9385L34.7305 23.3145L29.5898 40.8096L27.1719 40.8369Z" fill="#C2F2FF"/>
<path d="M24.831 8.17091C30.0263 8.72853 29.542 16.9287 24.0068 16.5781C18.9336 16.2559 18.8896 8.74904 23.7138 8.17091C23.9775 8.13966 24.5635 8.14259 24.831 8.17091ZM26.4062 12.3721C26.4062 11.2129 25.4658 10.2725 24.3056 10.2725C23.1455 10.2725 22.2051 11.2129 22.2051 12.3721C22.2051 13.5313 23.1455 14.4717 24.3056 14.4717C25.4658 14.4717 26.4062 13.5313 26.4062 12.3721Z" fill="#156EFB"/>
<path d="M17.3408 39.6856L13.0742 23.1817C13.1328 22.7959 13.3115 22.4375 13.6816 22.2745C14.3193 21.9942 17.1504 22.2862 17.2744 22.1553C17.3408 19.8721 18.9346 18.0938 21.2461 17.9502C23.0137 17.8399 25.666 17.8301 27.4277 17.9502C29.6885 18.1045 31.2842 19.9258 31.334 22.1553C32.3447 22.2354 33.5234 22.043 34.5137 22.1621C35.1553 22.2393 35.5566 22.6963 35.5254 23.3506L31.2685 39.6856H36.0977C36.125 39.6856 36.4043 39.8194 36.456 39.8526C37.2148 40.3457 37.0049 41.5352 36.1338 41.7579L12.6416 41.7871C11.8516 41.7061 11.417 40.8243 11.8564 40.1485C11.9531 40 12.3457 39.6856 12.5107 39.6856H17.3398H17.3408ZM29.2324 22.1553C29.1777 21.0137 28.4639 20.1436 27.2969 20.0518C25.6816 19.9248 23.0029 19.9395 21.3789 20.0518C20.1641 20.1358 19.4482 20.9561 19.3779 22.1563H29.2334L29.2324 22.1553ZM33.1084 24.2569H15.501L19.5176 39.6768H29.0928L33.1094 24.2569H33.1084Z" fill="#156EFB"/>
<path d="M19.623 26.373L28.8711 26.3574C29.6582 26.4961 29.9922 26.96 29.873 27.7539L27.4111 36.8486C27.2744 37.2988 26.9062 37.5469 26.4424 37.5879C25.4189 37.6777 23.1045 37.6992 22.1035 37.585C21.3184 37.4961 21.2246 36.9023 21.0381 36.2861C20.1836 33.4521 19.5791 30.5342 18.7256 27.6982C18.6348 26.9785 18.9287 26.5557 19.6221 26.373H19.623ZM27.459 28.458H21.1514L23.0313 35.4873L25.6133 35.4766L27.459 28.458Z" fill="#156EFB"/>
</svg>
