<svg width="40" height="41" viewBox="0 0 40 41" fill="none" xmlns="http://www.w3.org/2000/svg">
<path d="M20.0002 3.35742C18.7373 3.35742 17.526 3.85195 16.633 4.73223C15.74 5.6125 15.2383 6.80641 15.2383 8.0513V20.5683C15.2383 21.8132 15.74 23.0071 16.633 23.8874C17.526 24.7677 18.7373 25.2622 20.0002 25.2622C21.2631 25.2622 22.4743 24.7677 23.3674 23.8874C24.2604 23.0071 24.7621 21.8132 24.7621 20.5683V8.0513C24.7621 6.80641 24.2604 5.6125 23.3674 4.73223C22.4743 3.85195 21.2631 3.35742 20.0002 3.35742Z" stroke="white" stroke-width="3" stroke-linecap="round" stroke-linejoin="round"/>
<path d="M30.4758 17.6426V20.6055C30.4758 23.3559 29.3721 25.9937 27.4074 27.9385C25.4427 29.8833 22.7781 30.9759 19.9996 30.9759C17.2212 30.9759 14.5565 29.8833 12.5918 27.9385C10.6272 25.9937 9.52344 23.3559 9.52344 20.6055V17.6426" stroke="white" stroke-width="3" stroke-linecap="round" stroke-linejoin="round"/>
<path d="M20 30.9766V37.6432" stroke="white" stroke-width="3" stroke-linecap="round" stroke-linejoin="round"/>
<path d="M13.333 37.6426H26.6663" stroke="white" stroke-width="3" stroke-linecap="round" stroke-linejoin="round"/>
</svg>
