<svg width="91" height="90" viewBox="0 0 91 90" fill="none" xmlns="http://www.w3.org/2000/svg">
<path d="M52.6386 13.3893C55.3474 13.0237 57.7838 14.9098 58.0703 17.6274L58.065 72.4993C57.6466 75.8602 53.9605 77.7323 51.0039 76.0096L28.2033 61.9682C22.7787 61.8276 14.4273 63.2198 13.8507 55.5311C13.3392 48.702 14.2427 41.2383 13.8578 34.3442C14.9002 26.6661 22.5115 28.2446 28.2033 28.0319L50.9212 14.0397C51.4328 13.7532 52.0533 13.4684 52.6386 13.3893ZM30.7257 58.5915C38.3177 63.1424 45.7709 67.9553 53.398 72.4307L53.7882 72.1706L53.8269 17.9227C53.7197 17.6485 53.4841 17.4903 53.1959 17.6204L30.724 31.4086V58.5915H30.7257ZM26.4877 32.3034H20.5005C19.4582 32.3034 18.1838 33.4161 18.0783 34.4866L18.0607 55.2692C18.124 56.2835 18.8043 57.194 19.7746 57.5034C19.8765 57.5368 20.5884 57.6985 20.6324 57.6985H26.4877V32.3034Z" fill="#156EFB"/>
<path d="M70.5385 31.0149C72.0625 30.8954 73.2051 32.8782 73.9118 34.0243C78.0461 40.7392 78.0584 49.2874 73.9627 56.0286C73.4828 56.8179 72.3807 58.5563 71.5774 58.9079C69.8828 59.6479 68.35 58.3753 68.6049 56.5911C68.7069 55.8757 70.252 54.037 70.7213 53.181C73.4864 48.1202 73.4846 42.01 70.7213 36.9511C70.2625 36.1108 68.7121 34.2423 68.6014 33.5444C68.4098 32.3315 69.2905 31.1116 70.5385 31.0132V31.0149Z" fill="#156EFB"/>
<path d="M63.9519 36.6768C65.5111 36.4237 66.2511 37.5697 66.9367 38.7598C68.9845 42.3123 69.1304 46.6963 67.4306 50.4176C66.687 52.0436 65.1314 54.6451 63.0624 53.0297C61.1341 51.5233 63.1292 49.7901 63.7269 48.2924C64.699 45.8526 64.5742 43.3512 63.3507 41.0309C62.8902 40.1555 62.1888 39.7055 62.2732 38.5559C62.3365 37.6735 63.0853 36.8174 63.9537 36.6768H63.9519Z" fill="#156EFB"/>
</svg>
