<svg width="25" height="25" viewBox="0 0 25 25" fill="none" xmlns="http://www.w3.org/2000/svg">
<circle cx="12.8855" cy="12.3851" r="12.075" fill="#BF0C2C"/>
<path d="M14.5348 12.3856L17.6284 9.29194C17.9702 8.95012 17.9702 8.39596 17.6284 8.05468L17.216 7.64226C16.8741 7.30033 16.3199 7.30033 15.9786 7.64226L12.8851 10.7358L9.79145 7.64161C9.44964 7.2998 8.89547 7.2998 8.55419 7.64161L8.14113 8.05404C7.79931 8.39596 7.79931 8.95012 8.14113 9.2914L11.2353 12.3856L8.14177 15.4791C7.79985 15.821 7.79985 16.3752 8.14177 16.7165L8.55419 17.1289C8.896 17.4707 9.45017 17.4707 9.79145 17.1289L12.8851 14.0353L15.9786 17.1289C16.3205 17.4707 16.8747 17.4707 17.216 17.1289L17.6284 16.7165C17.9702 16.3745 17.9702 15.8204 17.6284 15.4791L14.5348 12.3856Z" fill="white"/>
</svg>
