<svg width="38" height="39" viewBox="0 0 38 39" fill="none" xmlns="http://www.w3.org/2000/svg">
<path d="M28.0888 13.1222C28.7122 13.025 29.3705 13.16 29.8722 13.5423C31.0902 14.9769 32.9753 16.3203 34.1094 17.7727C34.7195 18.5535 34.744 19.6512 34.1584 20.4505L19.0593 35.56L18.6942 35.6528C16.7726 35.5214 14.6351 35.8205 12.7396 35.6528C12.249 35.6097 12.0679 35.4264 12.0241 34.9373C11.8564 33.0418 12.1555 30.9043 12.0241 28.9827L12.1406 28.5842L27.1863 13.5363C27.3837 13.3849 27.8476 13.16 28.088 13.1222H28.0888ZM28.3753 14.3238C28.2053 14.3512 28.0108 14.4626 27.8735 14.5665C27.4683 14.876 26.1531 16.1911 25.8422 16.5971C25.8095 16.6402 25.7487 16.6646 25.762 16.7337L30.9848 21.9149L33.1631 19.741C33.4874 19.2675 33.4051 18.8059 33.0251 18.3991C31.7292 17.3096 30.5484 15.656 29.2481 14.6236C28.9794 14.4099 28.736 14.2652 28.3745 14.323L28.3753 14.3238ZM13.2858 34.3918H18.5205L30.043 22.8523L24.9887 17.6829L24.8714 17.6273L24.7541 17.6829L13.2858 29.1571V34.3918Z" fill="#156EFB"/>
<path d="M12.7151 5.25005C13.3801 5.15431 13.9576 5.56771 14.0474 6.23345L14.0459 19.4362C13.9101 20.2281 13.1159 20.6245 12.3864 20.2771L6.87041 16.8764C6.24994 16.8222 5.56936 16.9232 4.95631 16.8683C4.20002 16.8007 3.51869 16.1751 3.45784 15.4047C3.32573 13.7355 3.55877 11.8926 3.45932 10.2056C3.76287 8.41029 5.54561 8.81923 6.89119 8.75392C8.64647 7.72376 10.3312 6.56076 12.0947 5.5447C12.2839 5.4356 12.4947 5.28271 12.7144 5.25079L12.7151 5.25005ZM12.9987 6.28911C12.9808 6.27056 12.9482 6.26388 12.923 6.25794L7.49756 9.56365V16.0756L12.9007 19.3813C13.0298 19.3798 13.0298 19.29 13.0387 19.1854V6.45388C13.035 6.40415 13.0335 6.32622 12.9979 6.28986L12.9987 6.28911ZM6.48448 9.81079H4.92514C4.73514 9.81079 4.44791 10.1952 4.46869 10.3942C4.55553 11.9535 4.35217 13.6397 4.46721 15.1842C4.4776 15.3275 4.49912 15.4536 4.58077 15.5746C4.63346 15.6526 4.83608 15.8285 4.92514 15.8285H6.48448V9.81079Z" fill="#156EFB"/>
<path d="M16.9998 9.47078C17.3367 9.42106 17.5275 9.72164 17.6945 9.9584C18.8144 11.5459 18.876 13.6872 17.9141 15.3652C17.6922 15.7527 17.189 16.5988 16.6791 16.0458C16.3118 15.6473 16.8009 15.2302 17.0005 14.8925C17.8088 13.5254 17.7286 11.9282 16.8936 10.6011C16.7244 10.3317 16.4936 10.2159 16.573 9.83371C16.6094 9.66004 16.8291 9.49602 16.999 9.47078H16.9998Z" fill="#156EFB"/>
<path d="M15.4242 10.826C15.7478 10.7592 15.9593 10.993 16.1271 11.2431C16.5761 11.9155 16.6748 12.8923 16.464 13.6612C16.3408 14.1102 15.891 15.1812 15.278 14.7707C14.7362 14.4085 15.2965 13.9105 15.4346 13.5135C15.6572 12.8744 15.5541 12.3527 15.2505 11.773C15.1347 11.5519 14.9982 11.4992 15.0628 11.1875C15.091 11.0502 15.2876 10.8535 15.4249 10.8253L15.4242 10.826Z" fill="#156EFB"/>
</svg>
